<svg width="100" height="100" viewBox="0 0 100 100" fill="none" xmlns="http://www.w3.org/2000/svg">
<g clip-path="url(#clip0_29_342)">
<path d="M71.0525 85.2633H79.4736C82.6658 85.2633 85.2631 82.6662 85.2631 79.4738V54.2105C85.2631 51.0182 82.6658 48.4211 79.4736 48.4211H71.0525C67.8604 48.4211 65.2631 51.0182 65.2631 54.2105V79.4736C65.2631 82.6662 67.8604 85.2633 71.0525 85.2633ZM68.4211 54.2105C68.4211 52.7594 69.6016 51.5789 71.0527 51.5789H79.4738C80.925 51.5789 82.1055 52.7594 82.1055 54.2105V79.4736C82.1055 80.9248 80.925 82.1053 79.4738 82.1053H71.0527C69.6016 82.1053 68.4211 80.9248 68.4211 79.4736V54.2105Z" fill="#2ABBBD"/>
<path d="M99.5377 93.0942L95.3272 88.8837C94.7106 88.2671 93.711 88.2671 93.0942 88.8837C92.4776 89.5001 92.4776 90.4999 93.0942 91.1165L94.6094 92.6317H10C8.54884 92.6317 7.36837 91.4512 7.36837 90.0001V5.39108L8.88361 6.90631C9.50021 7.52291 10.4998 7.52291 11.1166 6.90631C11.7332 6.2899 11.7332 5.2901 11.1166 4.6735L6.90607 0.462756C6.28947 -0.153845 5.28986 -0.153845 4.67306 0.462756L0.462512 4.6733C-0.154089 5.28971 -0.154089 6.28951 0.462512 6.90612C1.07911 7.52272 2.07872 7.52272 2.69552 6.90612L4.21056 5.39088V90.0001C4.21056 93.1924 6.80782 95.7895 10 95.7895H94.609L93.0938 97.3047C92.4772 97.9212 92.4772 98.921 93.0938 99.5376C93.4022 99.846 93.8065 100 94.2104 100C94.6143 100 95.0186 99.8458 95.327 99.5376L99.5375 95.327C100.154 94.7106 100.154 93.7108 99.5377 93.0942Z" fill="#2ABBBD"/>
<path d="M45.7895 85.2633H54.2105C57.4027 85.2633 60 82.6662 60 79.4739V31.0528C60 27.8604 57.4027 25.2633 54.2105 25.2633H45.7895C42.5973 25.2633 40 27.8604 40 31.0528V79.4739C40 82.6662 42.5973 85.2633 45.7895 85.2633ZM43.1578 31.0528C43.1578 29.6016 44.3383 28.4211 45.7895 28.4211H54.2105C55.6617 28.4211 56.8422 29.6016 56.8422 31.0528V79.4739C56.8422 80.925 55.6617 82.1055 54.2105 82.1055H45.7895C44.3383 82.1055 43.1578 80.925 43.1578 79.4739V31.0528Z" fill="#2ABBBD"/>
<path d="M20.5262 85.2633H28.9473C32.1394 85.2633 34.7367 82.6662 34.7367 79.4738V5.78945C34.7367 2.59727 32.1394 0 28.9473 0H20.5262C17.334 0 14.7367 2.59727 14.7367 5.78945V79.4736C14.7367 82.6662 17.334 85.2633 20.5262 85.2633ZM17.8947 5.78945C17.8947 4.33848 19.0754 3.15781 20.5264 3.15781H28.9475C30.3986 3.15781 31.5791 4.33828 31.5791 5.78945V79.4736C31.5791 80.9248 30.3986 82.1053 28.9475 82.1053H20.5264C19.0752 82.1053 17.8947 80.9248 17.8947 79.4736V5.78945Z" fill="#2ABBBD"/>
</g>
<defs>
<clipPath id="clip0_29_342">
<rect width="100" height="100" fill="white"/>
</clipPath>
</defs>
</svg>
