<svg width="100" height="100" viewBox="0 0 100 100" fill="none" xmlns="http://www.w3.org/2000/svg">
<path d="M80.1445 29.8912C79.8949 29.6386 79.6148 29.4074 79.307 29.2023L78.9916 29.1365C78.8263 29.0646 78.6947 28.9467 78.6087 28.8041C78.1158 28.5715 77.5998 28.4215 77.0748 28.3465C76.6214 28.2836 76.3031 27.8627 76.3689 27.4062C76.43 26.95 76.8541 26.6316 77.3074 26.6943C77.8265 26.7709 78.3468 26.9027 78.846 27.0986C78.9271 26.7342 78.973 26.3621 78.973 25.9871C78.9714 25.1664 78.7787 24.3381 78.3683 23.5588C77.8998 22.6677 77.2125 21.9726 76.4085 21.4982C75.7043 21.0818 74.9082 20.8338 74.0906 20.7756C74.031 21.5211 73.8535 22.2636 73.5441 22.9832C73.3603 23.4056 72.872 23.6002 72.448 23.4179C72.0253 23.2373 71.8294 22.7474 72.0117 22.3248C72.3085 21.6314 72.448 20.9179 72.4511 20.2105L72.4404 19.909C72.3837 18.9291 72.0591 17.983 71.5064 17.1761C70.9537 16.3707 70.1791 15.7109 69.2146 15.2929C68.5226 14.9974 67.806 14.8582 67.1001 14.8582C65.7482 14.8582 64.4392 15.3789 63.4503 16.2972C63.6355 16.9265 63.7412 17.5894 63.7412 18.2785C63.7412 18.7379 63.3646 19.1113 62.9052 19.1113C62.4459 19.1113 62.0709 18.7379 62.0709 18.2785C62.0709 17.6033 61.9468 16.9633 61.7203 16.3677H61.7218C61.3374 15.365 60.6578 14.5015 59.7867 13.8922C58.9185 13.283 57.8667 12.9261 56.7216 12.9261C55.7281 12.9261 54.8017 13.1972 54.0056 13.6656C53.3687 14.0422 52.8191 14.5506 52.3875 15.1476C53.231 16.3035 53.73 17.732 53.73 19.2722C53.73 19.7314 53.355 20.1035 52.8941 20.1035C52.4347 20.1035 52.0597 19.7314 52.0597 19.2722C52.0597 17.9189 51.5621 16.6879 50.7339 15.7463C49.7511 14.624 48.3166 13.9215 46.7089 13.9215C45.5929 13.9215 44.5656 14.2597 43.7066 14.8416C42.8507 15.4234 42.1695 16.247 41.7667 17.2146C41.5066 17.8469 41.358 18.5435 41.358 19.2722C41.358 19.7314 40.9859 20.1035 40.5251 20.1035C40.0642 20.1035 39.6923 19.7314 39.6923 19.2722C39.6923 18.5955 39.7904 17.9433 39.9679 17.3217C39.3402 17.0676 38.6605 16.9267 37.9625 16.9267C37.566 16.9267 37.1679 16.9726 36.7636 17.0631C35.5755 17.3371 34.582 17.9771 33.8546 18.8435C33.331 19.4683 32.9574 20.2107 32.763 21.0084C34.4855 21.0388 36.2062 21.7049 37.5353 23.0062C37.863 23.3293 37.8691 23.856 37.5476 24.1836C37.2246 24.5142 36.6978 24.5174 36.3687 24.1972C35.3246 23.1793 33.9789 22.6693 32.6253 22.6677C32.3835 22.6677 32.1416 22.6845 31.8996 22.7152H31.8966H31.8951C30.7607 22.8728 29.6675 23.3902 28.7994 24.2754C27.7796 25.3164 27.2744 26.6607 27.273 28.0172C27.273 28.7904 27.4414 29.5695 27.7781 30.2861C28.0398 30.851 28.4074 31.3777 28.882 31.84V31.8414C29.4179 32.3681 30.0365 32.757 30.6964 33.0111C31.1234 33.1781 31.3394 33.6603 31.171 34.0888C31.0042 34.5207 30.5234 34.7351 30.0933 34.5666C29.2314 34.2328 28.4169 33.7217 27.7125 33.031C27.4048 32.7279 27.1306 32.4049 26.8875 32.0621C26.2582 32.9638 25.9167 34.0429 25.9167 35.1424C25.9167 35.9937 26.1205 36.8525 26.5505 37.6593C27.0343 38.5627 27.7341 39.267 28.5578 39.7476C29.2084 40.1289 29.9357 40.3693 30.6859 40.4535L30.6843 40.4029C30.6843 39.9619 30.7257 39.5302 30.8007 39.1107C30.8865 38.6576 31.3228 38.3619 31.773 38.4431C32.2261 38.5273 32.5248 38.9621 32.4435 39.4152C32.3837 39.7351 32.3517 40.0674 32.3517 40.4027L32.3654 40.7902L32.4097 41.1806V41.1851L32.4113 41.1928C32.7941 43.8078 35.0539 45.7627 37.6994 45.7627L38.0837 45.7474H38.0853C39.258 45.6633 40.3113 45.2099 41.1472 44.5043C41.7335 44.0097 42.2142 43.3898 42.5435 42.6914C42.7378 42.2734 43.2384 42.0961 43.6535 42.2933C44.0699 42.4894 44.2476 42.9853 44.0515 43.4019C43.6949 44.1537 43.208 44.8318 42.6232 45.409C42.9507 46.4164 43.5662 47.2814 44.3701 47.9244C45.2888 48.6609 46.4476 49.0957 47.7 49.0957L48.0859 49.0804H48.0875C48.8804 49.0238 49.6138 48.7957 50.2646 48.4404C50.1634 47.9613 50.1054 47.4715 50.1054 46.9754C50.1054 45.9525 50.3335 44.9099 50.805 43.9301C51.0056 43.5152 51.5031 43.3422 51.9165 43.5427C52.3314 43.7402 52.5076 44.2394 52.307 44.6543C51.9441 45.406 51.7742 46.1961 51.7742 46.9754C51.7742 47.5203 51.8584 48.0638 52.0207 48.5797H52.0222C52.4494 49.9408 53.414 51.1304 54.8025 51.7978C55.5527 52.1607 56.3427 52.3306 57.1205 52.3306C58.356 52.3306 59.564 51.8988 60.5224 51.1166L60.5255 51.115C61.1074 50.6357 61.5943 50.0295 61.9447 49.3052L61.9462 49.3021C62.2724 48.6256 62.4439 47.9168 62.4728 47.2094C62.4943 46.75 62.8816 46.3918 63.3439 46.4133C63.8033 46.4332 64.1584 46.8219 64.1384 47.2812C64.0986 48.209 63.8736 49.1459 63.4464 50.0293V50.0277C63.1035 50.7427 62.6519 51.372 62.1222 51.9093C63.105 53.3209 64.7402 54.2105 66.5085 54.209C66.8361 54.209 67.1699 54.1785 67.5052 54.114C68.7927 53.8722 69.8783 53.1908 70.65 52.2539C71.4201 51.3152 71.8687 50.1226 71.8687 48.864L71.8671 48.751V48.7447C71.8611 48.4615 71.832 48.1646 71.7769 47.8658C71.6437 47.157 71.3726 46.5138 71.0007 45.9459C70.4619 45.4713 69.8632 44.8513 69.2984 44.1623C68.6966 43.4275 68.1425 42.6236 67.7705 41.8138C67.5255 41.2719 67.3509 40.7238 67.3478 40.1467C67.3478 39.891 67.383 39.6262 67.4794 39.372C67.5728 39.1133 67.7259 38.8683 67.931 38.6662C68.2556 38.3431 68.7822 38.3431 69.1083 38.6662C69.433 38.9937 69.433 39.5234 69.1083 39.8467L69.0455 39.9463L69.0134 40.1469C69.0103 40.3566 69.0976 40.7119 69.2859 41.1205C69.4726 41.5279 69.7498 41.9855 70.0759 42.4371C70.722 43.342 71.5595 44.2301 72.1902 44.7718L72.2759 44.8455L72.3388 44.9388C72.8548 45.7074 73.233 46.5924 73.415 47.5584V47.5599L73.4748 47.9732L73.7244 47.984C74.7808 47.9824 75.8447 47.6701 76.7802 47.0133C77.5244 46.4896 78.0908 45.8176 78.4736 45.0627C78.8578 44.3064 79.0583 43.4705 79.0583 42.6285C79.0583 41.84 78.8806 41.0484 78.5255 40.3121C78.1962 40.4177 77.8625 40.5019 77.5242 40.5601C77.071 40.6412 76.6408 40.3334 76.5597 39.8804C76.483 39.4258 76.7894 38.997 77.2425 38.9174C78.7183 38.6633 80.0703 37.8029 80.9062 36.4219C81.4359 35.5539 81.6855 34.5984 81.6855 33.6539C81.6855 32.2621 81.148 30.9011 80.1468 29.8922L80.1445 29.8912ZM41.9507 23.5314C42.7468 22.5898 43.8033 21.9207 44.9392 21.4828C46.0798 21.0449 47.3015 20.8351 48.4744 20.8351C49.615 20.8367 50.7111 21.0297 51.6419 21.4615C52.0584 21.6511 52.2406 22.1488 52.0476 22.5668C51.8562 22.9834 51.3617 23.167 50.9408 22.9742C50.2978 22.6726 49.4173 22.4996 48.4744 22.4996C47.5037 22.4996 46.4689 22.6785 45.5394 23.04C44.6101 23.3967 43.7941 23.9295 43.2199 24.6062C42.9259 24.9584 42.3978 25.0043 42.0457 24.7043C41.6951 24.4072 41.6507 23.882 41.9507 23.5314ZM60.9228 43.2414C59.9537 43.2414 59.0748 43.1312 58.2726 42.9461C58.2941 43.1756 58.3093 43.4312 58.3093 43.7023C58.3093 44.2459 58.2496 44.8672 58.0796 45.5195C57.9082 46.1701 57.6189 46.8545 57.1626 47.5113C56.9009 47.891 56.3818 47.9844 56.0037 47.7224C55.624 47.4605 55.5322 46.9431 55.7908 46.5619C56.1275 46.0765 56.3373 45.5804 56.466 45.0922C56.5947 44.6039 56.6421 44.1291 56.6421 43.7021C56.6437 43.1127 56.5533 42.6273 56.489 42.3502C56.0818 42.1664 55.7066 41.9597 55.3562 41.7285C53.9599 40.8252 53.0261 39.6326 52.4396 38.498C52.0462 37.7371 51.8072 37.0023 51.6787 36.3638C51.6052 35.9994 51.5685 35.6689 51.5685 35.3685C51.5685 34.9062 51.9421 34.5326 52.4029 34.5326C52.8636 34.5326 53.2373 34.9062 53.2373 35.3685C53.2357 35.6103 53.2878 36.0162 53.4195 36.4771C53.5511 36.9394 53.7609 37.4646 54.064 37.9928C54.6718 39.0553 55.6378 40.1193 57.1291 40.8099C58.1257 41.2722 59.3658 41.5722 60.9228 41.5722C61.3835 41.5722 61.7572 41.9459 61.7572 42.4066C61.7572 42.8679 61.3837 43.2414 60.9228 43.2414ZM66.7927 37.1541C66.6212 37.5799 66.1359 37.7881 65.7072 37.6179C65.28 37.4465 65.0749 36.9642 65.2433 36.5371V36.5355L65.248 36.5232L65.2726 36.4498L65.3584 36.1498C65.4212 35.8865 65.4855 35.5144 65.4855 35.1056L65.4839 35.0474C64.3388 35.4363 63.2763 35.6107 62.298 35.6107C60.8191 35.6138 59.5392 35.2082 58.498 34.5928C57.4554 33.9775 56.6441 33.1629 56.0376 32.3345C55.3488 31.3961 54.4455 30.5541 53.4105 29.9586C52.3726 29.3613 51.2121 29.0062 49.9796 29.0031C48.9003 29.0062 47.7521 29.2756 46.5533 29.934C45.4158 30.5586 44.6839 31.3898 44.2109 32.3023C43.741 33.2164 43.5419 34.2144 43.5433 35.124C43.5402 35.966 43.7179 36.7283 43.949 37.2092C44.1464 37.6256 43.9673 38.1217 43.5525 38.3191C43.1376 38.5168 42.64 38.3375 42.4425 37.9226C42.0796 37.1539 41.8777 36.1863 41.8746 35.124C41.8761 34.0676 42.0859 32.9131 42.6019 31.8094C41.5671 32.0437 40.6056 32.1478 39.7298 32.1478C39.2568 32.1478 38.8111 32.1172 38.3871 32.0621L38.2324 32.3744L38.2308 32.3773L38.2185 32.3898L38.1742 32.4465L37.9964 32.6883C37.8449 32.9058 37.6351 33.2226 37.407 33.6267C36.9523 34.4275 36.4318 35.5574 36.1791 36.8263C36.0888 37.2781 35.6509 37.5736 35.1992 37.4816C34.7476 37.3914 34.4535 36.9535 34.547 36.4988C34.847 34.9937 35.4398 33.7138 35.9556 32.8029C36.225 32.3314 36.4716 31.958 36.6521 31.7037C35.9724 31.5002 35.3845 31.2506 34.9039 30.9963C33.8062 30.4129 33.2349 29.8281 33.1861 29.7806C32.8675 29.4484 32.8767 28.9217 33.2074 28.6017C33.5396 28.2834 34.0648 28.2926 34.3847 28.6201L34.3941 28.6293L34.4429 28.6767L34.6818 28.8771C34.899 29.0486 35.2345 29.2845 35.683 29.5232C36.5832 29.9978 37.9275 30.4787 39.7294 30.4818C40.9955 30.4818 42.4882 30.24 44.2228 29.5724C44.6623 29.1636 45.1689 28.7902 45.7507 28.4717C47.1777 27.6894 48.6152 27.3373 49.9792 27.3373C51.5378 27.3373 52.9876 27.7906 54.2431 28.5131C55.4986 29.2388 56.5626 30.2324 57.3816 31.35C57.8792 32.025 58.533 32.6789 59.3429 33.1549C60.1574 33.6326 61.1203 33.9435 62.2976 33.9449C63.1044 33.9449 64.0138 33.7949 65.0427 33.4336C64.7918 33.0308 64.4181 32.642 63.8027 32.2898C63.4015 32.0617 63.2591 31.5535 63.4857 31.1539C63.7138 30.7511 64.2207 30.6133 64.6216 30.8369C65.6076 31.3927 66.2675 32.1291 66.6501 32.8992C67.0374 33.6662 67.1523 34.4439 67.1523 35.1054C67.1478 36.2601 66.8156 37.0945 66.7927 37.1541ZM66.4804 26.941C64.533 26.941 62.8291 26.4158 61.4511 25.6213C61.2568 25.8908 60.9964 26.2291 60.6611 26.5965C59.9064 27.4248 58.7978 28.397 57.3144 28.9297C56.8781 29.0828 56.4035 28.8594 56.2488 28.4246C56.0941 27.9896 56.3222 27.5136 56.7525 27.3605C57.8472 26.9701 58.7626 26.2031 59.3966 25.5095C59.6906 25.1926 59.9187 24.8926 60.0841 24.6629C59.2619 23.9679 58.6128 23.1763 58.1673 22.3619C57.7449 21.581 57.4998 20.7758 57.4968 19.9933C57.4968 19.5342 57.8705 19.1605 58.3312 19.1605C58.7906 19.1605 59.164 19.5342 59.164 19.9933C59.1609 20.4144 59.308 20.9763 59.6324 21.5658C59.9523 22.1566 60.4392 22.772 61.0761 23.3234C62.3499 24.4273 64.1886 25.2722 66.4806 25.2722C66.9414 25.2722 67.3134 25.6474 67.3134 26.1082C67.3132 26.5674 66.9412 26.941 66.4804 26.941ZM73.0513 38.6791C72.7589 39.0312 72.2322 39.0832 71.8771 38.7877C71.522 38.4953 71.473 37.9687 71.7638 37.615C72.6732 36.5111 73.0085 35.3996 73.0115 34.3357C73.0146 33.3666 72.7175 32.431 72.2521 31.6427C71.7927 30.8556 71.1576 30.225 70.5466 29.8744C70.1363 29.6386 69.7505 29.533 69.4443 29.533C68.9833 29.533 68.6115 29.1611 68.6115 28.7002C68.6115 28.2394 68.9835 27.8658 69.4443 27.8658C69.9509 27.8658 70.447 27.9898 70.9187 28.198C71.3886 28.4033 71.8328 28.6957 72.246 29.0525C73.0712 29.7658 73.7724 30.7365 74.2134 31.8742C74.5042 32.6334 74.6818 33.4664 74.6818 34.3359C74.6833 35.7656 74.1951 37.2965 73.0513 38.6791Z" fill="#2ABBBD"/>
<path d="M33.6833 80.4414L33.7403 80.4921C33.7388 80.4906 33.7388 80.4906 33.7372 80.489L33.6833 80.4414Z" fill="#2ABBBD"/>
<path d="M83.7302 13.0027C77.5279 5.75039 68.1997 0.811523 56.2472 0.0902344C55.2749 0.0304688 54.3074 0 53.349 0C43.2964 0 34.0492 3.26406 27.2701 9.25645C20.4863 15.2334 16.2623 23.9846 16.2775 34.4658C16.2775 34.7031 16.2791 34.9404 16.2835 35.1793L16.273 36.4437L7.64429 51.6816C7.18042 52.5037 6.94604 53.4209 6.94604 54.3381C6.94604 55.1033 7.10855 55.8721 7.43745 56.5885C8.13413 58.1088 9.50425 59.202 11.1271 59.5785L11.124 59.5922L15.0923 60.6854L16.6601 75.807L16.6724 75.8055C16.7828 78.0086 17.7656 80.077 19.4345 81.5283C20.9181 82.8205 22.8119 83.5217 24.7593 83.5217C24.9566 83.5217 25.1511 83.5033 25.3472 83.4896L29.8437 83.8463L30.0689 83.8219L30.1408 83.8187C30.3136 83.8187 30.4746 83.8801 30.5986 83.9918L30.606 83.9996C30.7486 84.1281 30.8328 84.3164 30.8328 84.5094V100H72.8171V97.6484C72.8171 97.6484 72.8171 91.2781 72.8171 88.7367C72.8124 87.7139 73.0162 85.6916 73.4173 83.741C73.6164 82.7629 73.8626 81.7875 74.1415 80.9441C74.4171 80.1021 74.7357 79.3855 75.0019 78.9676C77.7945 74.4664 81.7429 70.7738 85.3589 65.5516C88.9706 60.334 92.0494 53.5654 92.8929 43.2955C93.0001 42.008 93.0539 40.7203 93.0539 39.4391C93.0539 29.7029 89.9429 20.2488 83.7302 13.0027ZM88.2052 42.9031C87.3892 52.449 84.7191 58.1609 81.4855 62.8842C78.2568 67.6027 74.264 71.3123 71.0136 76.4734C70.4472 77.3859 70.0322 78.3965 69.6755 79.4711C69.1458 81.0803 68.7677 82.8348 68.5089 84.4684C68.2517 86.1064 68.1156 87.5916 68.114 88.7367C68.114 90.3688 68.114 92.8367 68.114 95.2969H35.5359V84.5096C35.5359 82.977 34.8837 81.518 33.7414 80.4939C32.7447 79.5982 31.4587 79.1145 30.1406 79.1145C30.0441 79.1145 29.9507 79.125 29.8558 79.1312L25.364 78.773L25.1435 78.7975L24.7593 78.8189C23.9417 78.8189 23.1457 78.5234 22.5224 77.9814C21.8029 77.3553 21.3771 76.4551 21.3496 75.4982L21.3482 75.4096L19.4406 57.007L12.2908 55.0352L12.205 55.0184C11.9876 54.9754 11.8056 54.8314 11.7121 54.6293L11.6492 54.3385L11.738 53.9986L20.9667 37.7012L20.9867 35.1551V35.1213C20.9822 34.901 20.9806 34.6834 20.9806 34.4662C20.996 25.2375 24.583 17.9314 30.3855 12.7797C36.1941 7.64004 44.3054 4.70352 53.349 4.70352C54.2109 4.70352 55.0806 4.73105 55.9564 4.78477L56.1017 2.4377L55.9578 4.78477C66.7865 5.46602 74.757 9.78652 80.1597 16.065C85.5535 22.3482 88.3507 30.6936 88.3507 39.4389C88.3507 40.5883 88.3033 41.7441 88.2052 42.9031Z" fill="#2ABBBD"/>
</svg>
