<svg width="100" height="62" viewBox="0 0 100 62" fill="none" xmlns="http://www.w3.org/2000/svg">
<path d="M28.8222 43.5365C28.807 43.3809 28.7582 43.2375 28.7582 43.0818V41.7482C28.7582 41.1135 28.8619 40.4879 29.0695 39.8928C29.0695 39.8928 32.3929 35.4434 33.9646 30.2156C32.2433 26.584 30.6808 22.0645 30.6808 17.5844C30.6808 16.5437 30.7572 15.5367 30.864 14.5447C28.6211 12.1949 25.5906 10.8643 22.2427 10.8643C15.3304 10.8643 9.72145 16.5039 9.72145 25.2686C9.72145 32.2814 15.4283 39.8926 15.4283 39.8926C15.6296 40.4877 15.7336 41.1133 15.7336 41.748V43.0816C15.7336 44.7449 14.763 46.2586 13.2494 46.9514L4.18863 50.6531C2.08277 51.6236 0.584336 53.5584 0.166368 55.835L0.0107036 57.8277C-0.0685933 58.8654 0.285313 59.8877 0.993321 60.6477C1.6982 61.4137 2.6902 61.8439 3.73082 61.8439H18.541L19.1482 54.0406L19.1879 53.8301C19.9295 49.7377 22.6334 46.2586 26.4113 44.5191L28.8222 43.5365Z" fill="white"/>
<path d="M99.8335 55.835C99.4185 53.5584 97.92 51.6234 95.8144 50.6531L86.7476 46.9514C85.2339 46.2586 84.2695 44.7449 84.2695 43.0816V41.748C84.2695 41.1133 84.3702 40.4877 84.5777 39.8926C84.5777 39.8926 90.2814 32.2814 90.2814 25.2686C90.2814 16.5039 84.6753 10.8643 77.7509 10.8643C74.4093 10.8643 71.3788 12.1949 69.1296 14.5508C69.2396 15.5396 69.3157 16.5436 69.3157 17.5842C69.3157 22.0611 67.7564 26.5809 66.0382 30.2123C67.6068 35.44 70.9363 39.8926 70.9363 39.8926C71.1376 40.4877 71.2445 41.1133 71.2445 41.748V43.0816C71.2445 43.2373 71.1925 43.3807 71.1773 43.5363L73.4234 44.452C77.3601 46.2525 80.064 49.7314 80.8148 53.8238L80.8515 54.0375L81.4558 61.8439H96.272C97.3126 61.8439 98.3044 61.4137 99.0064 60.6477C99.7144 59.8877 100.068 58.8654 99.989 57.8277L99.8335 55.835Z" fill="white"/>
<path d="M71.8489 48.3064L60.881 43.8233C59.0499 42.981 57.8812 41.1499 57.8812 39.1419V37.5245C57.8812 36.7616 58.0032 36.0017 58.2566 35.2784C58.2566 35.2784 65.1536 26.0743 65.1536 17.5843C65.1536 6.97627 58.3697 0.155762 49.9986 0.155762C41.6306 0.155762 34.8435 6.97646 34.8435 17.5843C34.8435 26.0743 41.7466 35.2784 41.7466 35.2784C41.9939 36.0017 42.122 36.7616 42.122 37.5245V39.1419C42.122 41.1499 40.9441 42.981 39.1159 43.8233L28.148 48.3064C25.5997 49.4751 23.7839 51.8188 23.2835 54.5776L22.7189 61.8438H49.9986H77.2782L76.7198 54.5776C76.213 51.819 74.3972 49.4753 71.8489 48.3064Z" fill="white"/>
</svg>
