<svg width="100" height="100" viewBox="0 0 100 100" fill="none" xmlns="http://www.w3.org/2000/svg">
<g clip-path="url(#clip0_33_156)">
<path d="M27.0666 50.3967L27.0661 50.3973L27.0657 50.3978L27.0652 50.3985L27.065 50.3988L26.8359 50.7054L26.709 51.0693C26.4067 51.9357 26.2582 52.8402 26.2582 53.7482V53.8819L25.4677 54.204L25.4162 54.225L25.3657 54.2483C20.8521 56.3265 17.6193 60.4816 16.7295 65.3757C16.729 65.3785 16.7284 65.3814 16.7279 65.3843L16.6914 65.578L16.6663 65.7114L16.6557 65.8467L16.228 71.3439H3.73082C3.38126 71.3439 3.05905 71.2005 2.83297 70.9548L2.82776 70.9492L2.82251 70.9435C2.59622 70.7006 2.47712 70.368 2.50332 70.0197C2.50336 70.0192 2.5034 70.0187 2.50344 70.0182L2.64759 68.1728C2.94362 66.7599 3.88331 65.5637 5.19054 64.9444L14.1949 61.2657L14.2428 61.2461L14.2898 61.2246C16.6936 60.1244 18.2336 57.722 18.2336 55.0816V53.748C18.2336 52.8397 18.0848 51.9435 17.7964 51.0913L17.6683 50.7126L17.43 50.3949L17.4296 50.3943L17.4295 50.3942L17.4291 50.3936L17.4285 50.3928L17.4226 50.385L17.3859 50.3347C17.3515 50.2874 17.2978 50.213 17.2278 50.1134C17.0875 49.914 16.8819 49.6147 16.6327 49.2313C16.1329 48.4624 15.4651 47.3664 14.799 46.0687C13.4325 43.4068 12.2214 40.1781 12.2214 37.2686C12.2214 29.6427 16.9412 25.3643 22.2427 25.3643C24.5228 25.3643 26.5977 26.1342 28.2626 27.5275C28.2125 28.1912 28.1808 28.8769 28.1808 29.5844C28.1808 34.2037 29.6527 38.7355 31.2855 42.3758C30.5825 44.4048 29.6172 46.2956 28.7668 47.7574C28.2851 48.5853 27.8507 49.2579 27.5401 49.7188C27.385 49.9489 27.2615 50.1253 27.1792 50.2408C27.1381 50.2986 27.1073 50.3411 27.0881 50.3673L27.0682 50.3945L27.0666 50.3967Z" fill="white" stroke="white" stroke-width="5"/>
<path d="M85.7072 61.2246L85.7545 61.2462L85.8026 61.2659L94.8128 64.9445C96.1201 65.5639 97.0586 66.76 97.3521 68.171L97.4963 70.0187C97.4963 70.019 97.4963 70.0193 97.4964 70.0197C97.5227 70.3675 97.4038 70.7003 97.1772 70.9435L97.1702 70.951L97.1632 70.9586C96.9419 71.2001 96.6224 71.3439 96.272 71.3439H83.7697L83.344 65.8446L83.3351 65.7287L83.3154 65.6141L83.2787 65.4004L83.2763 65.3866L83.2737 65.3727C82.3728 60.462 79.1274 56.3118 74.4632 54.1785L74.4156 54.1567L74.3671 54.1369L73.7445 53.8831V53.748C73.7445 52.832 73.5902 51.9361 73.3044 51.0913L73.1768 50.7142L72.9399 50.3975L72.9398 50.3973L72.9392 50.3965L72.9388 50.396L72.9384 50.3954L72.9368 50.3932L72.9168 50.3661C72.8976 50.3398 72.8668 50.2973 72.8256 50.2395C72.7431 50.1239 72.6194 49.9474 72.4641 49.7172C72.1531 49.2561 71.7181 48.5832 71.236 47.7551C70.3845 46.2924 69.4187 44.401 68.7167 42.3722C70.3467 38.7319 71.8157 34.2003 71.8157 29.5842C71.8157 28.8779 71.7843 28.1939 71.7335 27.5311C73.4031 26.1333 75.4775 25.3643 77.7509 25.3643C83.0653 25.3643 87.7814 29.6435 87.7814 37.2686C87.7814 40.1785 86.5708 43.4073 85.2052 46.0692C84.5394 47.3669 83.8719 48.4629 83.3724 49.2318C83.1233 49.6153 82.9178 49.9146 82.7777 50.1139C82.7076 50.2135 82.6541 50.288 82.6197 50.3352L82.5829 50.3855L82.5771 50.3934L82.5765 50.3941L82.576 50.3947L82.576 50.3948L82.5755 50.3954L82.3446 50.7036L82.2169 51.0698C81.9126 51.943 81.7695 52.8479 81.7695 53.748V55.0816C81.7695 57.7156 83.2976 60.1218 85.7072 61.2246Z" fill="white" stroke="white" stroke-width="5"/>
<path d="M74.5788 71.3438H49.9986H25.4207L25.7653 66.9093C26.1458 65.0179 27.4007 63.4164 29.1467 62.5989L40.0618 58.1375L40.1125 58.1168L40.1622 58.0939C42.8709 56.8457 44.622 54.1317 44.622 51.1419V49.5245C44.622 48.4823 44.4471 47.4493 44.1122 46.4697L43.9841 46.0951L43.7479 45.7802L43.7476 45.7797L43.7472 45.7792L43.7468 45.7787L43.7466 45.7784L43.7374 45.7659C43.7279 45.7531 43.7121 45.7317 43.6906 45.7021C43.6474 45.6428 43.581 45.5505 43.4946 45.4277C43.3216 45.1819 43.0693 44.8147 42.764 44.3451C42.1521 43.4037 41.3348 42.0626 40.5192 40.4735C38.8539 37.229 37.3435 33.2327 37.3435 29.5843C37.3435 20.1162 43.2406 14.6558 49.9986 14.6558C56.7594 14.6558 62.6536 20.1156 62.6536 29.5843C62.6536 33.2332 61.1444 37.2298 59.4806 40.4743C58.6656 42.0634 57.849 43.4046 57.2376 44.3459C56.9326 44.8155 56.6805 45.1828 56.5078 45.4285C56.4214 45.5514 56.355 45.6436 56.3119 45.7029C56.2904 45.7326 56.2746 45.7539 56.2652 45.7668L56.2559 45.7793L56.2557 45.7796L56.2554 45.78L56.255 45.7806L56.2546 45.7811L56.0246 46.0879L55.8971 46.452C55.5458 47.4549 55.3812 48.4955 55.3812 49.5245V51.1419C55.3812 54.1244 57.1166 56.8434 59.8361 58.0945L59.8851 58.1171L59.9351 58.1375L70.8501 62.5989C72.5948 63.416 73.8517 65.0171 74.2381 66.9114L74.5788 71.3438Z" fill="white" stroke="white" stroke-width="5"/>
</g>
<defs>
<clipPath id="clip0_33_156">
<rect width="100" height="100" fill="white"/>
</clipPath>
</defs>
</svg>
