<svg width="72" height="84" viewBox="0 0 72 84" fill="none" xmlns="http://www.w3.org/2000/svg">
<path d="M33.0917 80.0621C34.0142 80.6 34.4754 80.8692 35.1263 81.0088C35.6317 81.1171 36.3683 81.1171 36.8738 81.0088C37.5246 80.8692 37.9858 80.6 38.9083 80.0621C47.025 75.3267 69.3333 60.4517 69.3333 40V17.5C69.3333 15.1753 69.3333 14.0129 68.8858 13.127C68.4892 12.3416 67.8696 11.7147 67.0888 11.3087C66.2083 10.8508 65.0263 10.8368 62.6617 10.8089C50.28 10.6625 43.14 9.64004 36 2.5C28.86 9.64004 21.72 10.6625 9.33834 10.8089C6.97388 10.8368 5.79163 10.8508 4.91105 11.3087C4.13038 11.7147 3.5108 12.3416 3.11413 13.127C2.66667 14.0129 2.66667 15.1753 2.66667 17.5V40C2.66667 60.4517 24.9748 75.3267 33.0917 80.0621Z" stroke="white" stroke-width="5" stroke-linecap="round" stroke-linejoin="round"/>
</svg>
