<svg width="100" height="100" viewBox="0 0 100 100" fill="none" xmlns="http://www.w3.org/2000/svg">
<path d="M47.0917 90.0621C48.0142 90.6 48.4754 90.8692 49.1263 91.0088C49.6317 91.1171 50.3683 91.1171 50.8738 91.0088C51.5246 90.8692 51.9858 90.6 52.9083 90.0621C61.025 85.3267 83.3333 70.4517 83.3333 50V27.5C83.3333 25.1753 83.3333 24.0129 82.8858 23.127C82.4892 22.3416 81.8696 21.7147 81.0888 21.3087C80.2083 20.8508 79.0263 20.8368 76.6617 20.8089C64.28 20.6625 57.14 19.64 50 12.5C42.86 19.64 35.72 20.6625 23.3383 20.8089C20.9739 20.8368 19.7916 20.8508 18.911 21.3087C18.1304 21.7147 17.5108 22.3416 17.1141 23.127C16.6667 24.0129 16.6667 25.1753 16.6667 27.5V50C16.6667 70.4517 38.9748 85.3267 47.0917 90.0621Z" stroke="white" stroke-width="10" stroke-linecap="round" stroke-linejoin="round"/>
</svg>
