<svg width="348" height="726" viewBox="0 0 348 726" fill="none" xmlns="http://www.w3.org/2000/svg">
<g filter="url(#filter0_d_23_113)">
<path d="M-117.429 0L-8.70331 274.252H343.141L58.4932 443.748L167.219 718L-117.429 548.503L-402.078 718L-293.352 443.748L-578 274.252H-226.155L-117.429 0Z" fill="#C05621"/>
<path d="M-117.429 13.567L-13.3514 276.094L-12.0997 279.252H-8.70331H324.972L55.9351 439.452L52.2753 441.632L53.8451 445.591L157.159 706.19L-114.871 544.207L-117.429 542.684L-119.987 544.207L-392.017 706.19L-288.704 445.591L-287.134 441.632L-290.794 439.452L-559.83 279.252H-226.155H-222.759L-221.507 276.094L-117.429 13.567Z" stroke="white" stroke-width="10"/>
</g>
<defs>
<filter id="filter0_d_23_113" x="-582" y="0" width="929.141" height="726" filterUnits="userSpaceOnUse" color-interpolation-filters="sRGB">
<feFlood flood-opacity="0" result="BackgroundImageFix"/>
<feColorMatrix in="SourceAlpha" type="matrix" values="0 0 0 0 0 0 0 0 0 0 0 0 0 0 0 0 0 0 127 0" result="hardAlpha"/>
<feOffset dy="4"/>
<feGaussianBlur stdDeviation="2"/>
<feComposite in2="hardAlpha" operator="out"/>
<feColorMatrix type="matrix" values="0 0 0 0 0 0 0 0 0 0 0 0 0 0 0 0 0 0 0.25 0"/>
<feBlend mode="normal" in2="BackgroundImageFix" result="effect1_dropShadow_23_113"/>
<feBlend mode="normal" in="SourceGraphic" in2="effect1_dropShadow_23_113" result="shape"/>
</filter>
</defs>
</svg>
