<svg width="100" height="100" viewBox="0 0 100 100" fill="none" xmlns="http://www.w3.org/2000/svg">
<path d="M51.642 53.6225V55.3466L53.2536 55.9593L70.8881 62.6633L70.8884 62.6634C72.1791 63.1539 72.8274 64.5977 72.3368 65.8879L72.3365 65.8884C71.8461 67.1791 70.4023 67.8274 69.1121 67.3368L69.1118 67.3366L48.2542 59.4083C48.2541 59.4082 48.2539 59.4082 48.2538 59.4081C47.2832 59.0388 46.642 58.1086 46.642 57.071V28.7868C46.642 27.406 47.7612 26.2868 49.142 26.2868C50.5228 26.2868 51.642 27.406 51.642 28.7868V53.6225ZM50 7.5C26.5279 7.5 7.5 26.5279 7.5 50C7.5 73.4722 26.5279 92.5 50 92.5C73.4722 92.5 92.5 73.4722 92.5 50C92.5 26.5279 73.4722 7.5 50 7.5ZM2.5 50C2.5 23.7665 23.7665 2.5 50 2.5C76.2333 2.5 97.5 23.7665 97.5 50C97.5 76.2333 76.2333 97.5 50 97.5C23.7665 97.5 2.5 76.2333 2.5 50Z" fill="white" stroke="white" stroke-width="5"/>
</svg>
