<svg width="100" height="100" viewBox="0 0 100 100" fill="none" xmlns="http://www.w3.org/2000/svg">
<path fill-rule="evenodd" clip-rule="evenodd" d="M50 10C27.9086 10 10 27.9086 10 50C10 72.0915 27.9086 90 50 90C72.0915 90 90 72.0915 90 50C90 27.9086 72.0915 10 50 10ZM0 50C0 22.3857 22.3857 0 50 0C77.614 0 100 22.3857 100 50C100 77.614 77.614 100 50 100C22.3857 100 0 77.614 0 50ZM49.142 23.7868C51.9035 23.7868 54.142 26.0254 54.142 28.7868V53.6225L71.7765 60.3265C74.358 61.3075 75.655 64.1955 74.6735 66.7765C73.6925 69.358 70.8045 70.655 68.2235 69.6735L47.3655 61.745C45.425 61.007 44.142 59.147 44.142 57.071V28.7868C44.142 26.0254 46.3805 23.7868 49.142 23.7868Z" fill="white"/>
</svg>
